<svg width="37" height="38" viewBox="0 0 37 38" fill="none" xmlns="http://www.w3.org/2000/svg">
<rect y="0.5" width="37" height="37" rx="18.5" fill="#F53838" fill-opacity="0.1"/>
<path d="M28.5 23.19C28.5 26.83 26.33 29 22.69 29H21.5C20.95 29 20.5 28.55 20.5 28V22.23C20.5 21.96 20.72 21.73 20.99 21.73L22.75 21.7C22.89 21.69 23.01 21.59 23.04 21.45L23.39 19.54C23.42 19.36 23.28 19.19 23.09 19.19L20.96 19.22C20.68 19.22 20.46 19 20.45 18.73L20.41 16.28C20.41 16.12 20.54 15.98 20.71 15.98L23.11 15.94C23.28 15.94 23.41 15.81 23.41 15.64L23.37 13.24C23.37 13.07 23.24 12.94 23.07 12.94L20.37 12.98C18.71 13.01 17.39 14.37 17.42 16.03L17.47 18.78C17.48 19.06 17.26 19.28 16.98 19.29L15.78 19.31C15.61 19.31 15.48 19.44 15.48 19.61L15.51 21.51C15.51 21.68 15.64 21.81 15.81 21.81L17.01 21.79C17.29 21.79 17.51 22.01 17.52 22.28L17.61 27.98C17.62 28.54 17.17 29 16.61 29H14.31C10.67 29 8.5 26.83 8.5 23.18V14.81C8.5 11.17 10.67 9 14.31 9H22.69C26.33 9 28.5 11.17 28.5 14.81V23.19V23.19Z" fill="#EF7146"/>
</svg>
