<svg width="25" height="25" viewBox="0 0 25 25" fill="none" xmlns="http://www.w3.org/2000/svg">
<path d="M20.8755 4.1174C16.2572 -0.500723 8.74299 -0.500723 4.12439 4.1174C-0.493734 8.73553 -0.493734 16.25 4.12439 20.868C6.43369 23.177 9.46659 24.3316 12.4997 24.3316C15.5328 24.3316 18.5659 23.177 20.8749 20.868C25.4932 16.2498 25.4941 8.736 20.8755 4.1174ZM15.1322 17.0989H9.86776C9.50445 17.0989 9.20978 16.804 9.20978 16.441C9.20978 16.0777 9.50469 15.783 9.86776 15.783H15.1322C15.4955 15.783 15.7901 16.0779 15.7901 16.441C15.7901 16.8043 15.4957 17.0989 15.1322 17.0989ZM17.1064 13.1508H7.89388C7.53058 13.1508 7.23591 12.8559 7.23591 12.4928C7.23591 12.1295 7.53082 11.8348 7.89388 11.8348H17.1064C17.4697 11.8348 17.7644 12.1297 17.7644 12.4928C17.7644 12.8561 17.4699 13.1508 17.1064 13.1508ZM19.0804 9.20262H5.91966C5.55635 9.20262 5.26168 8.90771 5.26168 8.54464C5.26168 8.18133 5.55659 7.88666 5.91966 7.88666H19.0804C19.4437 7.88666 19.7384 8.18157 19.7384 8.54464C19.7386 8.90772 19.4441 9.20262 19.0804 9.20262Z" fill="#EF7146"/>
<path d="M12.4997 24.9888C9.29883 24.9888 6.09795 23.7704 3.66086 21.3337C1.30015 18.9723 0 15.8334 0 12.4943C0 9.15513 1.30039 6.01671 3.66127 3.65541C8.53456 -1.21859 16.4654 -1.21835 21.339 3.65541C23.6997 6.01635 25 9.15525 25 12.4943C25 15.8333 23.6996 18.9718 21.3387 21.3331C18.9018 23.7702 15.7009 24.9887 12.4999 24.9887L12.4997 24.9888ZM12.4997 1.31591C9.63572 1.31591 6.77173 2.40608 4.59151 4.58636C2.47915 6.69871 1.31578 9.50718 1.31578 12.4945C1.31578 15.4819 2.47915 18.2904 4.59151 20.4027C8.95236 24.7629 16.0472 24.7629 20.4079 20.4027C22.5205 18.2904 23.6839 15.4819 23.6839 12.4945C23.6839 9.50718 22.5205 6.69866 20.4081 4.58636C18.2279 2.40632 15.364 1.31591 12.4999 1.31591H12.4997Z" fill="#EF7146"/>
</svg>
