<svg width="37" height="38" viewBox="0 0 37 38" fill="none" xmlns="http://www.w3.org/2000/svg">
<rect y="0.5" width="37" height="37" rx="18.5" fill="#F53838" fill-opacity="0.1"/>
<path d="M28.48 18.41C28.14 12.61 22.87 8.13996 16.8 9.13996C12.62 9.82996 9.26999 13.2199 8.61999 17.3999C8.23999 19.8199 8.74001 22.1099 9.83001 23.9999L8.93999 27.3099C8.73999 28.0599 9.42998 28.7399 10.17 28.5299L13.43 27.63C14.91 28.5 16.64 28.9999 18.49 28.9999C24.13 28.9999 28.81 24.03 28.48 18.41ZM23.38 22.7199C23.29 22.8999 23.18 23.07 23.04 23.23C22.79 23.5 22.52 23.7 22.22 23.82C21.92 23.95 21.59 24.01 21.24 24.01C20.73 24.01 20.18 23.89 19.61 23.64C19.03 23.39 18.46 23.0599 17.89 22.6499C17.31 22.2299 16.77 21.7599 16.25 21.2499C15.73 20.7299 15.27 20.1799 14.85 19.6099C14.44 19.0399 14.11 18.4699 13.87 17.8999C13.63 17.3299 13.51 16.78 13.51 16.26C13.51 15.92 13.57 15.59 13.69 15.29C13.81 14.98 14 14.7 14.27 14.45C14.59 14.13 14.94 13.98 15.31 13.98C15.45 13.98 15.59 14.01 15.72 14.07C15.85 14.13 15.97 14.22 16.06 14.35L17.22 15.9899C17.31 16.1199 17.38 16.2299 17.42 16.3399C17.47 16.4499 17.49 16.5499 17.49 16.6499C17.49 16.7699 17.45 16.89 17.38 17.01C17.31 17.13 17.22 17.2499 17.1 17.3699L16.72 17.7699C16.66 17.8299 16.64 17.8899 16.64 17.9699C16.64 18.0099 16.65 18.0499 16.66 18.0899C16.68 18.1299 16.69 18.16 16.7 18.1899C16.79 18.36 16.95 18.5699 17.17 18.8299C17.4 19.0899 17.64 19.3599 17.9 19.6199C18.17 19.8899 18.43 20.1299 18.7 20.3599C18.96 20.5799 19.18 20.73 19.35 20.82C19.38 20.83 19.41 20.8499 19.44 20.8599C19.48 20.8799 19.52 20.88 19.57 20.88C19.66 20.88 19.72 20.85 19.78 20.79L20.16 20.41C20.29 20.28 20.41 20.19 20.52 20.13C20.64 20.06 20.75 20.0199 20.88 20.0199C20.98 20.0199 21.08 20.0399 21.19 20.0899C21.3 20.1399 21.42 20.2 21.54 20.29L23.2 21.4699C23.33 21.5599 23.42 21.67 23.48 21.79C23.53 21.92 23.56 22.0399 23.56 22.1799C23.5 22.3499 23.46 22.5399 23.38 22.7199Z" fill="#EF7146"/>
</svg>
