<svg xmlns="http://www.w3.org/2000/svg" xmlns:xlink="http://www.w3.org/1999/xlink" width="1920" zoomAndPan="magnify" viewBox="0 0 1440 809.999993" height="1080" preserveAspectRatio="xMidYMid meet" version="1.0"><defs><clipPath id="ea2a0272d2"><path d="M 559.507812 163.5 L 880.492188 163.5 L 880.492188 646.5 L 559.507812 646.5 Z M 559.507812 163.5 " clip-rule="nonzero"/></clipPath></defs><g clip-path="url(#ea2a0272d2)"><path fill="#e9a672" d="M 606.078125 313.464844 C 600.496094 308.429688 591 297.132812 594.242188 289.863281 C 597.59375 282.375 610.882812 287.40625 618.140625 278.460938 C 624.171875 271.082031 617.023438 262.464844 621.492188 246.140625 C 623.054688 240.660156 625.515625 235.402344 628.753906 230.707031 C 613.675781 227.015625 599.714844 219.859375 587.875 209.796875 C 575.367188 199.171875 565.648438 185.640625 559.507812 170.320312 C 572.910156 173.335938 585.867188 178.035156 597.925781 184.410156 C 615.238281 193.582031 630.648438 205.882812 643.273438 220.757812 C 649.972656 216.285156 657.902344 213.820312 665.945312 213.488281 C 676.554688 213.261719 686.941406 216.84375 695.207031 223.4375 C 698.21875 211.808594 703.695312 200.960938 711.398438 191.566406 C 727.816406 171.773438 748.929688 165.398438 756.855469 163.496094 C 754.398438 181.726562 747.140625 198.949219 735.972656 213.488281 C 727.816406 224 717.65625 232.945312 706.152344 239.65625 C 712.515625 248.824219 716.203125 259.5625 716.871094 270.746094 C 718.101562 292.214844 707.378906 307.425781 704.140625 311.671875 C 714.636719 338.738281 726.8125 365.128906 740.4375 390.742188 C 757.75 423.28125 777.410156 454.371094 799.410156 484.007812 C 811.695312 476.851562 829.675781 464.097656 842.1875 442.628906 C 864.523438 403.933594 857.265625 357.300781 864.523438 356.742188 C 868.320312 356.40625 872.226562 369.15625 873.007812 371.730469 C 891.773438 434.019531 869.324219 496.308594 869.324219 496.308594 C 853.914062 539.027344 829.675781 565.757812 815.714844 580.855469 C 799.96875 597.851562 780.867188 618.089844 749.375 631.738281 C 711.511719 648.175781 667.507812 649.960938 664.9375 641.6875 C 663.820312 638.21875 669.855469 631.179688 698.554688 616.191406 C 678.898438 618.425781 658.90625 615.410156 640.925781 607.242188 C 598.597656 617.085938 576.703125 619.882812 575.144531 615.292969 C 573.804688 611.378906 587.429688 602.210938 616.023438 587.671875 C 599.9375 557.257812 592.339844 523.148438 593.90625 488.816406 C 595.132812 465.109375 600.832031 441.847656 610.660156 420.148438 C 607.308594 417.6875 602.621094 415.117188 597.816406 416.125 C 592.566406 417.242188 591.558594 421.828125 585.082031 425.179688 C 580.28125 427.753906 571.90625 429.992188 568.777344 426.972656 C 563.078125 421.496094 569.894531 394.765625 588.769531 386.9375 C 603.507812 380.785156 618.363281 389.285156 620.597656 390.628906 C 628.53125 368.820312 636.347656 347.011719 644.164062 325.207031 C 637.800781 325.765625 619.816406 325.878906 606.078125 313.464844 " fill-opacity="1" fill-rule="nonzero"/></g><path fill="#f8dfd0" d="M 674.542969 453.140625 C 677.449219 449.003906 681.132812 445.425781 685.265625 442.628906 C 698.441406 433.90625 712.851562 435.917969 716.984375 436.699219 C 709.390625 450.34375 696.4375 460.183594 681.359375 463.875 C 682.808594 470.585938 682.363281 477.519531 680.242188 484.007812 C 678.789062 488.480469 676.441406 492.617188 673.425781 496.195312 L 690.402344 509.28125 L 679.347656 513.863281 C 678.230469 515.097656 674.878906 518.789062 670.296875 524.042969 C 665.164062 529.855469 663.375 531.871094 661.8125 531.421875 C 659.6875 530.753906 659.578125 525.71875 659.800781 523.148438 C 660.023438 520.351562 661.027344 517.777344 662.703125 515.433594 C 658.683594 515.433594 654.777344 515.320312 650.753906 514.875 C 648.296875 514.539062 645.839844 514.539062 643.386719 514.761719 C 642.269531 514.875 641.152344 515.097656 640.035156 515.320312 C 632.882812 517.109375 630.3125 527.957031 626.742188 527.621094 C 624.171875 527.285156 622.496094 521.246094 622.386719 517.109375 C 622.386719 512.636719 623.839844 508.164062 626.742188 504.695312 L 634.335938 498.988281 C 629.753906 498.097656 625.515625 496.195312 621.828125 493.289062 C 615.574219 488.257812 609.878906 479.085938 612.445312 474.835938 C 614.90625 471.03125 621.9375 474.835938 626.296875 470.027344 C 629.648438 466.449219 627.414062 462.3125 631.097656 456.386719 C 632.882812 453.589844 635.339844 451.238281 638.132812 449.5625 C 633.105469 445.761719 628.867188 441.175781 625.402344 435.917969 C 620.597656 428.425781 617.582031 419.816406 616.910156 410.980469 C 625.960938 413.773438 634 419.03125 640.144531 426.300781 C 644.609375 431.667969 647.960938 437.933594 649.75 444.640625 C 652.765625 444.304688 655.78125 444.417969 658.792969 445.089844 C 664.714844 446.429688 670.191406 449.117188 674.542969 453.140625 " fill-opacity="1" fill-rule="nonzero"/><path fill="#1f1315" d="M 632.101562 306.753906 C 625.402344 316.371094 615.6875 309.550781 609.765625 303.285156 C 608.761719 302.28125 607.195312 303.84375 608.203125 304.851562 C 612 308.765625 616.351562 313.242188 622.164062 313.800781 C 626.964844 314.136719 631.542969 311.898438 634.113281 307.871094 C 634.894531 306.640625 632.996094 305.523438 632.101562 306.753906 " fill-opacity="1" fill-rule="nonzero"/><path fill="#1f1315" d="M 609.429688 315.253906 C 614.347656 314.023438 610.882812 306.753906 609.429688 304.070312 C 609.09375 303.621094 608.3125 303.511719 607.867188 303.84375 C 607.417969 304.179688 607.308594 304.738281 607.53125 305.191406 C 608.203125 306.308594 611.328125 312.457031 608.871094 313.019531 C 607.417969 313.351562 607.976562 315.585938 609.429688 315.253906 " fill-opacity="1" fill-rule="nonzero"/><path fill="#1f1315" d="M 682.808594 271.414062 C 681.804688 264.59375 681.359375 254.976562 672.421875 254.078125 C 664.378906 253.296875 663.597656 265.152344 663.820312 270.523438 C 663.933594 271.972656 666.167969 271.972656 666.054688 270.523438 C 665.832031 265.597656 666.503906 253.519531 674.429688 256.988281 C 680.128906 259.449219 679.90625 266.71875 680.6875 271.972656 C 680.910156 273.425781 683.035156 272.867188 682.808594 271.414062 " fill-opacity="1" fill-rule="nonzero"/><path fill="#1f1315" d="M 643.945312 271.414062 C 643.386719 265.710938 641.933594 255.3125 634.558594 254.191406 C 627.191406 253.074219 627.75 265.933594 628.867188 269.960938 C 629.089844 270.523438 629.753906 270.855469 630.3125 270.632812 C 630.871094 270.410156 631.097656 269.960938 630.984375 269.402344 C 630.207031 266.609375 630.089844 263.699219 630.761719 260.902344 C 631.542969 257.660156 633.890625 255.089844 637.128906 258.21875 C 640.59375 261.574219 641.152344 266.832031 641.597656 271.414062 C 641.820312 272.867188 644.050781 272.867188 643.945312 271.414062 " fill-opacity="1" fill-rule="nonzero"/><path fill="#1f1315" d="M 704.8125 393.308594 C 696.101562 388.277344 683.257812 383.359375 673.3125 387.386719 C 664.605469 390.964844 659.019531 400.355469 655.78125 408.742188 C 653.546875 414.449219 648.183594 427.53125 656.339844 431 C 666.613281 435.359375 675.324219 423.503906 680.015625 416.347656 L 678.117188 416.347656 C 682.027344 423.617188 688.390625 429.207031 695.988281 432.117188 C 697.324219 432.675781 697.882812 430.441406 696.546875 429.992188 C 689.507812 427.195312 683.59375 421.941406 680.015625 415.230469 C 679.683594 414.671875 679.011719 414.558594 678.453125 414.785156 C 678.230469 414.894531 678.117188 415.007812 678.007812 415.230469 C 675.660156 418.699219 673.3125 422.386719 670.191406 425.179688 C 665.609375 429.09375 657.011719 432.339844 654.328125 424.511719 C 653.324219 421.71875 655.78125 415.675781 656.675781 412.878906 C 657.902344 409.191406 659.578125 405.5 661.476562 402.148438 C 665.273438 395.660156 670.75 389.285156 678.675781 388.503906 C 687.273438 387.609375 696.324219 391.074219 703.695312 395.324219 C 704.253906 395.660156 704.921875 395.4375 705.144531 394.878906 C 705.480469 394.320312 705.257812 393.644531 704.8125 393.308594 " fill-opacity="1" fill-rule="nonzero"/><path fill="#1f1315" d="M 742.226562 483.332031 C 715.085938 479.871094 697.21875 505.03125 695.429688 529.519531 C 694.3125 544.507812 698.21875 559.378906 703.359375 573.25 C 707.714844 585.214844 713.519531 596.734375 724.023438 604.339844 L 724.023438 602.324219 L 698.777344 613.507812 C 697.4375 614.066406 698.554688 615.96875 699.894531 615.410156 L 725.136719 604.226562 C 726.03125 603.890625 725.695312 602.769531 725.136719 602.324219 C 714.863281 594.832031 709.390625 583.199219 705.144531 571.570312 C 700.675781 559.269531 697.21875 546.296875 697.554688 533.097656 C 697.996094 508.609375 714.863281 481.882812 742.335938 485.460938 C 743.675781 485.683594 743.566406 483.445312 742.226562 483.332031 " fill-opacity="1" fill-rule="nonzero"/><path fill="#1f1315" d="M 607.867188 522.25 C 603.738281 540.367188 608.425781 559.269531 616.582031 575.59375 C 624.0625 590.691406 636.234375 603.664062 653.101562 607.695312 C 654.554688 608.027344 655.113281 605.902344 653.660156 605.566406 C 637.351562 601.652344 625.738281 589.128906 618.476562 574.476562 C 610.660156 558.710938 605.96875 540.367188 609.988281 522.925781 C 610.324219 521.46875 608.203125 520.796875 607.867188 522.25 " fill-opacity="1" fill-rule="nonzero"/><path fill="#1f1315" d="M 633.332031 571.90625 C 642.9375 584.65625 655.894531 594.496094 670.75 600.199219 C 672.085938 600.757812 672.644531 598.519531 671.304688 598.074219 C 657.011719 592.597656 644.5 583.089844 635.230469 570.898438 C 634.449219 569.671875 632.4375 570.789062 633.332031 571.90625 " fill-opacity="1" fill-rule="nonzero"/><path fill="#1f1315" d="M 667.957031 585.214844 C 674.429688 590.917969 681.804688 595.390625 689.957031 598.296875 C 691.296875 598.746094 691.855469 596.621094 690.515625 596.175781 C 682.808594 593.378906 675.660156 589.128906 669.519531 583.648438 C 668.402344 582.753906 666.949219 584.316406 667.957031 585.214844 " fill-opacity="1" fill-rule="nonzero"/><path fill="#1f1315" d="M 618.140625 513.640625 C 616.351562 513.417969 614.457031 513.082031 612.671875 513.082031 C 611.777344 512.96875 610.769531 513.195312 610.101562 513.976562 C 608.425781 515.992188 607.976562 519.679688 607.753906 522.25 C 607.644531 523.707031 609.878906 523.707031 609.988281 522.25 C 610.101562 521.023438 610.324219 519.90625 610.546875 518.675781 C 610.769531 517.890625 611.105469 516.101562 611.664062 515.542969 C 612.222656 514.984375 613.5625 515.433594 614.234375 515.542969 L 617.917969 515.992188 C 619.480469 516.101562 619.480469 513.863281 618.140625 513.640625 " fill-opacity="1" fill-rule="nonzero"/><path fill="#1f1315" d="M 817.726562 547.75 C 821.410156 527.507812 817.167969 506.707031 805.773438 489.597656 C 804.996094 488.367188 803.097656 489.484375 803.878906 490.714844 C 815.046875 507.269531 819.175781 527.507812 815.605469 547.191406 C 815.269531 548.644531 817.390625 549.203125 817.726562 547.75 " fill-opacity="1" fill-rule="nonzero"/><path fill="#1f1315" d="M 668.738281 641.242188 L 674.429688 635.984375 C 675.546875 634.980469 673.871094 633.414062 672.867188 634.417969 L 667.171875 639.675781 C 665.945312 640.683594 667.621094 642.246094 668.738281 641.242188 " fill-opacity="1" fill-rule="nonzero"/><path fill="#1f1315" d="M 673.203125 643.144531 L 677.671875 639.007812 C 678.789062 637.996094 677.113281 636.433594 676.105469 637.4375 L 671.636719 641.574219 C 670.519531 642.585938 672.195312 644.148438 673.203125 643.144531 " fill-opacity="1" fill-rule="nonzero"/><path fill="#1f1315" d="M 678.230469 644.371094 L 681.132812 642.023438 C 681.582031 641.574219 681.582031 640.90625 681.132812 640.457031 C 680.6875 640.011719 680.015625 640.011719 679.570312 640.457031 L 676.664062 642.808594 C 676.21875 643.253906 676.332031 644.039062 676.777344 644.371094 C 677.113281 644.707031 677.78125 644.707031 678.230469 644.371094 " fill-opacity="1" fill-rule="nonzero"/><path fill="#1f1315" d="M 578.378906 612.949219 C 579.832031 612.5 581.0625 611.609375 581.957031 610.375 C 582.289062 609.816406 582.066406 609.144531 581.507812 608.8125 C 580.949219 608.476562 580.28125 608.699219 579.945312 609.257812 C 579.386719 610.039062 578.605469 610.488281 577.710938 610.820312 C 577.152344 610.933594 576.816406 611.609375 576.933594 612.167969 C 577.152344 612.835938 577.820312 613.171875 578.378906 612.949219 " fill-opacity="1" fill-rule="nonzero"/><path fill="#1f1315" d="M 583.074219 611.496094 C 581.285156 612.054688 579.722656 613.058594 578.378906 614.402344 C 577.375 615.523438 578.9375 617.085938 579.945312 615.96875 C 580.949219 614.847656 582.179688 614.066406 583.632812 613.617188 C 584.972656 613.171875 584.414062 611.046875 583.074219 611.496094 " fill-opacity="1" fill-rule="nonzero"/><path fill="#1f1315" d="M 583.519531 618.761719 L 586.199219 617.199219 C 586.757812 616.863281 586.871094 616.191406 586.535156 615.632812 C 586.199219 615.183594 585.640625 614.960938 585.082031 615.292969 L 582.402344 616.863281 C 581.84375 617.199219 581.730469 617.867188 582.066406 618.425781 C 582.402344 618.875 582.960938 618.984375 583.519531 618.761719 " fill-opacity="1" fill-rule="nonzero"/><path fill="#1f1315" d="M 655.671875 421.15625 C 654.554688 422.613281 653.660156 424.0625 652.878906 425.632812 C 652.207031 426.859375 654.105469 427.976562 654.777344 426.75 C 655.558594 425.179688 656.558594 423.730469 657.566406 422.277344 C 657.902344 421.71875 657.789062 421.042969 657.230469 420.707031 C 656.789062 420.375 656.003906 420.484375 655.671875 421.15625 C 655.671875 421.042969 655.671875 421.042969 655.671875 421.15625 " fill-opacity="1" fill-rule="nonzero"/><path fill="#1f1315" d="M 658.792969 428.648438 L 660.917969 425.179688 C 661.699219 423.953125 659.6875 422.835938 659.019531 424.0625 L 656.894531 427.53125 C 656.117188 428.761719 658.011719 429.882812 658.792969 428.648438 " fill-opacity="1" fill-rule="nonzero"/><path fill="#1f1315" d="M 662.816406 426.75 L 661.363281 429.09375 C 660.582031 430.328125 662.480469 431.445312 663.261719 430.214844 L 664.714844 427.867188 C 665.496094 426.636719 663.597656 425.519531 662.816406 426.75 " fill-opacity="1" fill-rule="nonzero"/><path fill="#1f1315" d="M 569.558594 425.632812 L 571.234375 419.257812 C 571.347656 418.699219 571.011719 418.027344 570.453125 417.914062 C 569.894531 417.804688 569.222656 418.140625 569.113281 418.699219 L 567.4375 425.070312 C 567.324219 425.632812 567.660156 426.300781 568.21875 426.414062 C 568.777344 426.636719 569.445312 426.300781 569.558594 425.632812 " fill-opacity="1" fill-rule="nonzero"/><path fill="#1f1315" d="M 572.238281 427.976562 L 574.921875 421.601562 C 575.480469 420.261719 573.355469 419.703125 572.796875 421.042969 L 570.117188 427.417969 C 569.558594 428.761719 571.679688 429.324219 572.238281 427.976562 " fill-opacity="1" fill-rule="nonzero"/><path fill="#1f1315" d="M 576.933594 427.195312 L 577.710938 424.175781 C 577.820312 423.617188 577.488281 422.945312 576.933594 422.835938 C 576.375 422.722656 575.703125 423.058594 575.589844 423.617188 L 574.808594 426.636719 C 574.699219 427.195312 575.03125 427.867188 575.589844 427.976562 C 576.039062 428.203125 576.703125 427.867188 576.933594 427.195312 " fill-opacity="1" fill-rule="nonzero"/><path fill="#1f1315" d="M 657.230469 466 C 656.675781 469.46875 656.558594 474.613281 660.917969 475.617188 C 665.273438 476.625 667.285156 471.480469 667.84375 468.128906 C 668.066406 466.671875 665.945312 466.113281 665.722656 467.566406 C 665.386719 469.691406 664.714844 473.828125 661.699219 473.496094 C 658.683594 473.160156 659.128906 468.6875 659.464844 466.671875 C 659.578125 465.21875 657.453125 464.550781 657.230469 466 " fill-opacity="1" fill-rule="nonzero"/><path fill="#1f1315" d="M 635.566406 462.085938 C 635.230469 465.21875 634.78125 470.699219 638.691406 471.820312 C 643.050781 473.046875 645.058594 468.011719 645.726562 464.773438 C 646.0625 463.316406 643.828125 462.757812 643.609375 464.214844 C 643.492188 465.554688 643.050781 467.007812 642.378906 468.234375 C 641.710938 469.355469 639.921875 470.472656 638.691406 469.46875 C 636.90625 468.011719 637.574219 464.097656 637.800781 462.199219 C 637.910156 460.636719 635.675781 460.636719 635.566406 462.085938 " fill-opacity="1" fill-rule="nonzero"/><path fill="#1f1315" d="M 619.144531 480.988281 C 620.597656 484.007812 622.496094 487.246094 625.738281 488.480469 C 628.308594 489.597656 631.320312 489.039062 633.441406 487.136719 C 634.449219 486.128906 632.882812 484.566406 631.878906 485.570312 C 627.414062 489.820312 622.722656 483.5625 621.046875 479.871094 C 620.488281 478.527344 618.585938 479.648438 619.144531 480.988281 " fill-opacity="1" fill-rule="nonzero"/><path fill="#1f1315" d="M 616.46875 489.710938 C 620.933594 488.925781 621.046875 483.785156 620.488281 480.316406 C 620.261719 478.859375 618.140625 479.53125 618.363281 480.875 C 618.699219 483.222656 619.035156 487.023438 615.910156 487.585938 C 614.457031 487.808594 615.015625 490.042969 616.46875 489.710938 " fill-opacity="1" fill-rule="nonzero"/><path fill="#1f1315" d="M 617.695312 480.316406 C 619.257812 480.875 621.046875 480.652344 622.386719 479.648438 C 622.945312 479.308594 623.054688 478.636719 622.832031 478.078125 C 622.832031 477.96875 622.722656 477.96875 622.609375 477.855469 C 620.933594 476.402344 618.476562 476.402344 616.804688 477.855469 C 616.351562 478.300781 616.351562 478.972656 616.804688 479.417969 C 616.910156 479.53125 616.910156 479.53125 617.023438 479.648438 C 618.699219 480.652344 621.046875 480.207031 622.050781 478.414062 C 622.164062 478.300781 622.164062 478.191406 622.164062 478.078125 C 622.386719 477.632812 622.386719 477.074219 621.9375 476.738281 C 620.820312 475.394531 618.8125 475.28125 617.46875 476.402344 C 616.804688 476.960938 616.351562 477.855469 616.351562 478.75 C 616.246094 480.207031 618.476562 480.207031 618.585938 478.75 C 618.699219 477.632812 619.816406 477.742188 620.375 478.414062 L 620.152344 477.074219 C 619.816406 477.855469 619.035156 478.191406 618.253906 477.96875 C 618.140625 477.96875 618.027344 477.855469 618.027344 477.855469 L 618.253906 479.648438 C 619.035156 478.972656 620.152344 478.972656 620.933594 479.648438 L 621.15625 477.855469 C 620.261719 478.527344 619.144531 478.636719 618.140625 478.300781 C 617.023438 477.742188 616.351562 479.871094 617.695312 480.316406 " fill-opacity="1" fill-rule="nonzero"/><path fill="#1f1315" d="M 597.703125 296.351562 C 600.050781 299.707031 603.179688 302.394531 606.859375 303.957031 C 607.195312 304.179688 607.644531 304.179688 607.976562 303.957031 C 612.222656 300.714844 615.351562 296.242188 616.910156 291.097656 C 617.023438 290.539062 616.6875 289.863281 616.132812 289.757812 C 616.023438 289.757812 615.910156 289.757812 615.796875 289.757812 C 609.320312 289.640625 602.949219 291.320312 597.367188 294.566406 C 596.808594 294.898438 596.699219 295.570312 597.035156 296.128906 C 597.367188 296.6875 598.039062 296.800781 598.597656 296.464844 C 603.84375 293.449219 609.878906 291.878906 615.910156 291.878906 L 614.792969 290.425781 C 613.789062 294.230469 611.664062 297.695312 608.761719 300.378906 C 606.972656 301.835938 606.191406 301.160156 604.402344 299.929688 C 602.621094 298.589844 601.054688 296.910156 599.714844 295.125 C 598.933594 294.117188 596.921875 295.234375 597.703125 296.351562 " fill-opacity="1" fill-rule="nonzero"/><path fill="#1f1315" d="M 599.601562 296.910156 C 601.167969 296.910156 602.0625 298.8125 603.066406 299.929688 C 603.84375 300.824219 604.738281 301.5 605.855469 301.835938 C 606.414062 301.945312 607.085938 301.609375 607.195312 301.046875 C 607.308594 300.714844 607.195312 300.488281 607.085938 300.15625 C 605.855469 298.03125 603.957031 296.351562 601.835938 295.347656 C 600.71875 294.789062 599.492188 296.128906 600.496094 297.132812 C 602.730469 299.261719 605.183594 301.160156 607.867188 302.839844 C 608.425781 303.175781 609.09375 302.953125 609.429688 302.394531 C 609.542969 302.167969 609.652344 301.835938 609.542969 301.5 C 608.871094 298.03125 606.414062 295.125 602.949219 294.007812 C 602.171875 293.671875 601.390625 294.566406 601.613281 295.347656 C 602.171875 297.46875 605.183594 302.953125 608.089844 300.601562 C 610.996094 298.253906 604.738281 294.453125 603.066406 293.671875 C 602.507812 293.332031 601.835938 293.554688 601.503906 294.117188 C 601.277344 294.453125 601.277344 294.898438 601.503906 295.234375 C 602.507812 297.585938 605.519531 301.722656 608.535156 299.484375 C 610.996094 297.808594 607.53125 294.230469 606.078125 293.109375 C 605.632812 292.660156 604.960938 292.660156 604.515625 293.109375 C 604.179688 293.449219 604.066406 293.894531 604.179688 294.230469 C 604.515625 296.242188 606.972656 300.714844 609.542969 298.703125 C 612.335938 296.464844 608.425781 293.332031 606.414062 292.550781 C 605.855469 292.4375 605.183594 292.773438 605.074219 293.332031 C 604.851562 295.234375 605.742188 297.023438 607.308594 297.921875 C 608.425781 298.703125 609.988281 299.148438 610.769531 297.695312 C 612.335938 295.011719 608.3125 290.316406 606.300781 293.554688 C 605.632812 294.789062 606.078125 296.242188 607.308594 296.910156 C 608.871094 297.921875 610.769531 296.910156 611.777344 295.570312 C 612.671875 294.566406 613.453125 292.996094 612.335938 291.878906 C 610.882812 290.425781 607.53125 292.886719 606.191406 293.449219 C 604.851562 294.007812 605.855469 295.792969 607.085938 295.457031 C 609.320312 295.011719 611.554688 294.230469 613.675781 293.332031 C 614.679688 292.886719 614.121094 291.210938 613.117188 291.210938 C 611.328125 291.210938 609.429688 291.433594 607.753906 291.992188 L 608.3125 294.117188 C 609.429688 293.671875 610.660156 293.449219 611.886719 293.449219 L 610.769531 291.992188 C 610.324219 294.339844 608.871094 296.464844 606.859375 297.808594 L 608.203125 299.597656 L 612.222656 294.675781 L 610.324219 293.894531 C 610.324219 295.570312 609.429688 297.132812 607.976562 298.144531 L 609.652344 299.597656 L 614.121094 294.117188 L 612.335938 292.773438 C 611.21875 294.339844 609.988281 295.90625 608.535156 297.246094 C 607.53125 298.253906 609.09375 299.820312 610.101562 298.8125 C 611.21875 297.695312 612.222656 296.464844 613.003906 295.125 C 613.230469 294.566406 613.003906 293.894531 612.445312 293.671875 C 612 293.449219 611.441406 293.554688 611.105469 294.007812 L 607.53125 299.484375 C 606.75 300.714844 608.648438 301.835938 609.429688 300.601562 L 613.117188 295.457031 L 611.21875 294.339844 C 610.546875 295.570312 609.652344 296.574219 608.648438 297.585938 L 610.210938 299.148438 C 611.777344 297.585938 613.117188 296.015625 614.347656 294.230469 C 615.015625 293.21875 613.453125 291.878906 612.558594 292.886719 L 608.089844 298.253906 C 607.753906 298.703125 607.753906 299.484375 608.3125 299.820312 C 608.761719 300.15625 609.320312 300.15625 609.652344 299.820312 C 611.441406 298.480469 612.558594 296.242188 612.671875 294.007812 C 612.671875 293.332031 612.222656 292.886719 611.554688 292.886719 C 611.21875 292.886719 610.996094 292.996094 610.769531 293.21875 L 606.75 298.144531 C 605.96875 299.039062 606.972656 300.714844 608.089844 299.929688 C 610.660156 298.253906 612.445312 295.683594 613.117188 292.773438 C 613.230469 292.214844 612.894531 291.542969 612.335938 291.433594 C 612.222656 291.433594 612.113281 291.433594 612 291.433594 C 610.546875 291.433594 609.207031 291.65625 607.867188 292.214844 C 606.527344 292.773438 607.085938 294.789062 608.425781 294.339844 C 609.988281 293.894531 611.664062 293.671875 613.230469 293.671875 L 612.671875 291.542969 C 610.769531 292.4375 608.761719 292.996094 606.636719 293.449219 L 607.53125 295.457031 L 609.429688 294.566406 C 610.4375 294.007812 610.660156 293.894531 610.101562 294.339844 C 610.101562 295.125 609.429688 295.792969 608.648438 295.792969 C 607.867188 295.792969 607.195312 295.125 607.195312 294.339844 C 607.195312 294.230469 607.195312 294.007812 607.195312 293.894531 L 605.855469 294.675781 L 606.972656 295.234375 C 607.753906 296.574219 607.867188 296.800781 607.308594 296.015625 C 606.859375 295.347656 606.527344 294.453125 606.414062 293.671875 L 604.515625 294.789062 C 604.851562 295.125 607.308594 297.132812 606.972656 297.585938 C 605.632812 298.925781 603.84375 294.898438 603.507812 294.230469 L 601.949219 295.792969 C 603.402344 296.351562 604.738281 297.246094 605.855469 298.480469 C 606.859375 299.484375 605.742188 298.589844 605.296875 298.144531 C 604.515625 297.246094 603.957031 296.128906 603.621094 294.898438 L 602.285156 296.242188 C 604.851562 297.246094 606.75 299.484375 607.308594 302.167969 L 608.984375 300.9375 C 606.527344 299.371094 604.179688 297.585938 602.171875 295.570312 L 600.832031 297.363281 C 602.730469 298.253906 604.292969 299.597656 605.296875 301.382812 L 606.527344 299.707031 C 603.621094 298.8125 603.179688 294.898438 599.714844 294.789062 C 599.042969 294.789062 598.597656 295.234375 598.597656 295.90625 C 598.597656 296.574219 598.933594 296.910156 599.601562 296.910156 " fill-opacity="1" fill-rule="nonzero"/><path fill="#1f1315" d="M 608.3125 299.820312 C 609.429688 300.042969 610.546875 299.371094 610.882812 298.253906 C 610.882812 298.144531 610.996094 297.921875 610.996094 297.808594 C 610.996094 297.132812 610.546875 296.6875 609.878906 296.6875 C 609.542969 296.6875 609.320312 296.800781 609.09375 297.023438 C 608.425781 297.808594 608.3125 298.8125 608.761719 299.707031 C 609.09375 300.265625 609.765625 300.378906 610.324219 300.042969 C 610.546875 299.929688 610.769531 299.707031 610.769531 299.371094 L 611.328125 296.015625 C 611.441406 295.457031 611.105469 294.789062 610.546875 294.675781 C 609.988281 294.566406 609.320312 294.898438 609.207031 295.457031 L 608.535156 298.8125 L 610.546875 298.589844 C 610.546875 298.703125 610.546875 298.589844 610.546875 298.589844 L 608.648438 297.808594 C 608.648438 297.695312 608.761719 297.585938 608.871094 297.585938 C 608.871094 297.585938 608.871094 297.585938 608.984375 297.585938 C 607.53125 297.363281 606.972656 299.484375 608.3125 299.820312 " fill-opacity="1" fill-rule="nonzero"/><path fill="#1f1315" d="M 609.542969 298.925781 C 608.761719 299.371094 608.3125 300.265625 608.203125 301.160156 C 608.203125 301.835938 608.648438 302.28125 609.320312 302.28125 C 609.988281 302.28125 610.4375 301.835938 610.4375 301.160156 C 610.4375 300.601562 610.324219 300.042969 610.101562 299.597656 C 609.878906 299.148438 609.320312 298.925781 608.871094 299.039062 C 608.089844 299.261719 607.308594 299.820312 606.859375 300.488281 C 606.078125 301.722656 607.976562 302.839844 608.761719 301.609375 C 608.871094 301.382812 609.207031 301.160156 609.429688 301.160156 L 608.203125 300.601562 C 608.203125 300.714844 608.203125 300.9375 608.203125 301.046875 L 610.4375 301.046875 C 610.4375 300.9375 610.546875 300.824219 610.660156 300.714844 C 611.886719 300.042969 610.769531 298.144531 609.542969 298.925781 " fill-opacity="1" fill-rule="nonzero"/><path fill="#ef7146" d="M 695.320312 297.246094 C 695.320312 305.75 688.390625 312.789062 679.90625 312.789062 C 671.414062 312.789062 664.492188 305.859375 664.492188 297.246094 C 664.492188 288.746094 671.414062 281.8125 679.90625 281.8125 C 688.390625 281.8125 695.320312 288.746094 695.320312 297.246094 " fill-opacity="1" fill-rule="nonzero"/><path fill="#f8a6ae" d="M 664.828125 485.347656 C 664.828125 489.375 661.585938 492.507812 657.675781 492.507812 C 653.660156 492.507812 650.53125 489.261719 650.53125 485.347656 C 650.53125 481.324219 653.769531 478.191406 657.675781 478.191406 C 661.699219 478.078125 664.828125 481.324219 664.828125 485.347656 C 664.9375 485.347656 664.9375 485.347656 664.828125 485.347656 " fill-opacity="1" fill-rule="nonzero"/></svg>